<svg xmlns="http://www.w3.org/2000/svg" viewBox="83 75 1661 2210" width="1661" height="2210" role="img" aria-label="Ace Werk logo">
  <path fill="#2c2e34" fill-rule="evenodd" d="M1425.0,1876.0 C1391.7,1955.3 1358.3,2034.7 1325.0,2114.0 C1325.7,2114.7 1326.3,2115.3 1327.0,2116.0 C1345.0,2115.7 1363.0,2115.3 1381.0,2115.0 C1387.0,2100.0 1394.6,2076.7 1399.0,2070.0 C1400.5,2067.7 1401.7,2067.3 1403.0,2066.0 C1436.3,2066.0 1491.0,2061.8 1503.0,2066.0 C1506.0,2067.1 1506.2,2067.6 1508.0,2070.0 C1512.7,2076.4 1519.8,2105.6 1524.0,2112.0 C1525.5,2114.3 1526.7,2114.7 1528.0,2116.0 C1546.0,2116.0 1564.0,2116.0 1582.0,2116.0 C1582.7,2115.0 1583.3,2114.0 1584.0,2113.0 C1550.3,2034.3 1494.1,1890.4 1483.0,1877.0 C1481.7,1875.4 1481.8,1875.5 1480.0,1875.0 C1473.2,1873.0 1443.3,1875.7 1425.0,1876.0 Z M1453.0,1938.0 C1454.3,1939.0 1455.4,1939.0 1457.0,1941.0 C1463.3,1949.3 1477.0,1991.7 1487.0,2017.0 C1486.0,2018.7 1485.0,2020.3 1484.0,2022.0 C1463.7,2022.0 1443.3,2022.0 1423.0,2022.0 C1422.0,2021.0 1421.0,2020.0 1420.0,2019.0 C1430.0,1993.0 1444.5,1949.4 1450.0,1941.0 C1451.2,1939.1 1452.0,1939.0 1453.0,1938.0 Z M579.0,1235.0 C575.6,1236.2 575.9,1236.9 573.0,1240.0 C559.5,1254.2 479.6,1358.3 473.0,1373.0 C471.8,1375.6 472.3,1376.3 472.0,1378.0 C507.0,1423.0 542.0,1468.0 577.0,1513.0 C599.3,1513.0 621.7,1513.0 644.0,1513.0 C644.3,1511.7 644.7,1510.3 645.0,1509.0 C611.0,1464.7 577.0,1420.3 543.0,1376.0 C550.3,1365.3 555.2,1357.6 565.0,1344.0 C583.1,1318.9 618.3,1274.0 645.0,1239.0 C644.7,1237.7 644.3,1236.3 644.0,1235.0 C622.3,1235.0 588.9,1231.4 579.0,1235.0 Z M881.0,427.0 C702.7,713.7 392.1,1203.1 346.0,1287.0 C338.4,1300.9 337.4,1303.7 334.0,1312.0 C330.8,1319.7 328.6,1325.9 326.0,1335.0 C322.4,1347.6 318.0,1365.9 316.0,1381.0 C314.1,1395.2 313.4,1408.6 314.0,1423.0 C314.6,1438.5 316.9,1456.0 320.0,1471.0 C322.8,1484.5 326.6,1497.1 331.0,1509.0 C335.1,1520.0 339.8,1530.1 345.0,1540.0 C350.1,1549.7 355.4,1558.6 362.0,1568.0 C369.2,1578.3 377.9,1589.2 387.0,1599.0 C396.2,1608.9 406.6,1618.5 417.0,1627.0 C427.0,1635.1 437.9,1642.6 448.0,1649.0 C457.1,1654.8 465.3,1659.4 475.0,1664.0 C485.8,1669.1 498.6,1674.3 510.0,1678.0 C520.5,1681.5 529.9,1683.9 541.0,1686.0 C553.4,1688.4 569.0,1690.2 581.0,1691.0 C590.9,1691.6 598.4,1691.5 608.0,1691.0 C618.9,1690.4 631.8,1688.9 643.0,1687.0 C653.4,1685.2 663.0,1682.9 673.0,1680.0 C683.3,1677.0 692.9,1673.8 704.0,1669.0 C717.6,1663.1 734.2,1654.4 748.0,1646.0 C761.1,1638.0 772.7,1628.7 785.0,1620.0 C786.0,1621.0 787.0,1622.0 788.0,1623.0 C787.3,1629.7 787.3,1634.9 786.0,1643.0 C783.9,1655.8 779.1,1676.9 775.0,1692.0 C771.4,1705.3 767.6,1716.6 763.0,1729.0 C758.3,1741.9 753.2,1754.8 747.0,1768.0 C740.3,1782.4 731.6,1798.9 724.0,1812.0 C717.6,1823.1 712.0,1831.8 705.0,1842.0 C697.4,1853.1 689.9,1863.3 680.0,1876.0 C666.8,1892.9 635.3,1924.9 632.0,1934.0 C631.2,1936.3 632.0,1937.3 632.0,1939.0 C820.0,1939.0 1008.0,1939.0 1196.0,1939.0 C1196.3,1938.0 1196.7,1937.0 1197.0,1936.0 C1173.7,1906.7 1143.6,1871.2 1127.0,1848.0 C1116.8,1833.7 1111.5,1825.0 1104.0,1812.0 C1095.5,1797.3 1086.0,1779.1 1079.0,1764.0 C1073.0,1751.0 1068.7,1740.0 1064.0,1727.0 C1058.9,1712.8 1054.0,1698.1 1050.0,1682.0 C1045.5,1663.8 1042.7,1642.7 1039.0,1623.0 C1040.3,1622.0 1041.7,1621.0 1043.0,1620.0 C1056.0,1629.0 1068.2,1638.8 1082.0,1647.0 C1096.2,1655.5 1113.1,1664.1 1127.0,1670.0 C1138.4,1674.8 1147.6,1677.9 1159.0,1681.0 C1171.5,1684.4 1185.2,1687.3 1199.0,1689.0 C1213.5,1690.8 1229.9,1691.5 1244.0,1691.0 C1256.7,1690.6 1267.9,1689.1 1280.0,1687.0 C1292.6,1684.8 1305.1,1682.2 1318.0,1678.0 C1332.1,1673.4 1348.2,1666.5 1361.0,1660.0 C1372.1,1654.4 1381.4,1648.6 1391.0,1642.0 C1400.7,1635.3 1409.4,1628.6 1419.0,1620.0 C1430.3,1609.8 1443.8,1596.6 1454.0,1584.0 C1463.6,1572.2 1471.8,1559.8 1479.0,1547.0 C1486.1,1534.4 1492.0,1521.5 1497.0,1508.0 C1502.1,1494.2 1506.3,1478.3 1509.0,1465.0 C1511.3,1453.9 1512.4,1445.9 1513.0,1434.0 C1513.8,1417.9 1513.3,1394.6 1511.0,1377.0 C1509.0,1361.6 1505.5,1348.3 1501.0,1334.0 C1496.3,1319.0 1493.0,1308.7 1483.0,1289.0 C1461.1,1245.7 1401.0,1157.0 1360.0,1091.0 C1361.0,1089.0 1362.0,1087.0 1363.0,1085.0 C1388.7,1080.7 1414.3,1076.3 1440.0,1072.0 C1441.0,1070.7 1442.0,1069.3 1443.0,1068.0 C1376.0,1010.0 1260.7,903.2 1242.0,894.0 C1239.4,892.7 1238.7,893.3 1237.0,893.0 C1194.7,971.3 1152.3,1049.7 1110.0,1128.0 C1110.3,1129.3 1110.7,1130.7 1111.0,1132.0 C1136.7,1127.3 1176.9,1116.4 1188.0,1118.0 C1191.2,1118.5 1192.0,1120.0 1194.0,1121.0 C1189.3,1141.3 1185.8,1162.4 1180.0,1182.0 C1174.4,1201.0 1167.9,1219.0 1160.0,1237.0 C1151.9,1255.3 1141.6,1274.3 1132.0,1291.0 C1123.3,1306.1 1115.2,1318.5 1105.0,1333.0 C1093.5,1349.4 1079.9,1367.2 1066.0,1384.0 C1051.6,1401.5 1036.8,1415.5 1020.0,1436.0 C997.4,1463.6 954.4,1504.3 944.0,1536.0 C936.4,1559.2 943.1,1579.7 945.0,1603.0 C947.1,1628.8 952.3,1660.9 957.0,1684.0 C960.6,1701.6 964.7,1715.7 969.0,1730.0 C972.8,1742.8 975.4,1751.8 981.0,1766.0 C989.4,1787.4 1005.0,1818.7 1017.0,1845.0 C1016.0,1846.0 1015.0,1847.0 1014.0,1848.0 C947.3,1848.0 880.7,1848.0 814.0,1848.0 C813.0,1847.0 812.0,1846.0 811.0,1845.0 C822.3,1820.3 835.4,1796.0 845.0,1771.0 C854.3,1746.6 862.6,1718.0 868.0,1697.0 C871.9,1681.7 873.7,1670.8 876.0,1657.0 C878.4,1642.2 880.6,1628.5 882.0,1611.0 C883.8,1587.8 875.5,1554.3 884.0,1530.0 C892.5,1505.6 918.8,1486.8 933.0,1465.0 C946.2,1444.8 957.9,1422.1 967.0,1404.0 C974.0,1390.0 978.6,1379.1 984.0,1366.0 C989.6,1352.2 994.7,1339.5 1000.0,1323.0 C1007.0,1301.2 1015.6,1270.9 1021.0,1246.0 C1026.0,1223.0 1029.5,1200.2 1032.0,1179.0 C1034.2,1160.1 1035.0,1151.1 1036.0,1125.0 C1038.5,1056.7 1036.0,877.7 1036.0,754.0 C1036.7,753.3 1037.3,752.7 1038.0,752.0 C1039.3,752.7 1040.1,752.3 1042.0,754.0 C1054.4,765.2 1113.3,867.3 1149.0,924.0 C1150.3,923.7 1151.7,923.3 1153.0,923.0 C1168.3,894.3 1183.7,865.7 1199.0,837.0 C1198.0,834.0 1198.3,833.0 1196.0,828.0 C1179.5,792.9 1029.3,560.7 946.0,427.0 C945.0,427.3 944.0,427.7 943.0,428.0 C942.7,668.3 948.5,1042.9 942.0,1149.0 C940.2,1179.2 938.3,1187.7 935.0,1207.0 C931.7,1226.7 927.2,1246.7 922.0,1266.0 C916.9,1285.0 911.5,1302.9 904.0,1322.0 C895.8,1343.1 884.1,1368.2 874.0,1387.0 C865.8,1402.2 857.9,1414.2 849.0,1427.0 C840.2,1439.6 833.0,1449.6 821.0,1463.0 C803.6,1482.6 772.1,1513.6 752.0,1531.0 C737.9,1543.2 726.6,1551.4 714.0,1560.0 C702.3,1567.9 690.1,1575.4 679.0,1581.0 C669.6,1585.7 661.4,1589.0 652.0,1592.0 C642.4,1595.1 633.0,1597.6 622.0,1599.0 C609.0,1600.6 591.2,1600.9 579.0,1600.0 C569.8,1599.3 563.5,1598.0 555.0,1596.0 C545.0,1593.6 533.7,1590.6 523.0,1586.0 C511.1,1580.9 496.9,1572.6 487.0,1566.0 C479.4,1561.0 474.8,1557.3 468.0,1551.0 C458.8,1542.4 446.2,1529.4 438.0,1518.0 C430.5,1507.7 424.9,1497.1 420.0,1486.0 C415.2,1475.1 411.5,1463.2 409.0,1452.0 C406.7,1441.5 405.3,1431.4 405.0,1421.0 C404.7,1410.4 405.2,1400.0 407.0,1389.0 C409.0,1376.8 413.0,1362.1 417.0,1351.0 C420.2,1341.9 421.0,1339.9 428.0,1327.0 C463.2,1261.6 667.3,944.3 787.0,753.0 C788.3,753.7 789.7,754.3 791.0,755.0 C791.3,970.0 791.7,1185.0 792.0,1400.0 C793.0,1399.7 793.8,1399.9 795.0,1399.0 C798.8,1396.1 806.8,1383.2 813.0,1373.0 C821.0,1359.8 831.0,1340.9 838.0,1326.0 C844.0,1313.1 848.2,1302.6 853.0,1289.0 C858.7,1272.8 864.9,1251.9 869.0,1235.0 C872.6,1220.5 874.8,1208.8 877.0,1194.0 C879.6,1176.8 881.4,1167.2 883.0,1138.0 C888.6,1034.3 883.7,664.7 884.0,428.0 C883.0,427.7 882.0,427.3 881.0,427.0 Z M1286.0,1145.0 C1322.3,1203.0 1377.2,1287.9 1395.0,1319.0 C1401.3,1330.1 1403.5,1334.0 1407.0,1342.0 C1410.6,1350.3 1413.7,1359.2 1416.0,1368.0 C1418.3,1376.8 1420.0,1385.8 1421.0,1395.0 C1422.0,1404.5 1422.3,1415.4 1422.0,1424.0 C1421.8,1431.0 1421.3,1435.9 1420.0,1443.0 C1418.4,1452.3 1415.7,1464.5 1412.0,1475.0 C1408.1,1485.9 1403.3,1496.6 1397.0,1507.0 C1390.2,1518.3 1381.5,1529.9 1372.0,1540.0 C1362.3,1550.3 1350.4,1560.2 1339.0,1568.0 C1328.4,1575.3 1317.6,1581.2 1306.0,1586.0 C1294.3,1590.9 1279.4,1594.7 1269.0,1597.0 C1261.7,1598.7 1257.3,1599.4 1250.0,1600.0 C1240.1,1600.8 1224.9,1600.8 1215.0,1600.0 C1207.7,1599.4 1203.3,1598.7 1196.0,1597.0 C1185.4,1594.5 1169.7,1589.9 1158.0,1585.0 C1147.2,1580.5 1138.7,1575.6 1128.0,1569.0 C1114.7,1560.7 1095.7,1546.8 1085.0,1538.0 C1078.1,1532.4 1074.3,1528.0 1069.0,1523.0 C1069.0,1522.0 1069.0,1521.0 1069.0,1520.0 C1096.7,1487.7 1130.6,1450.1 1152.0,1423.0 C1166.6,1404.5 1176.7,1390.4 1187.0,1375.0 C1196.0,1361.5 1202.4,1351.6 1211.0,1336.0 C1223.1,1314.1 1240.9,1279.5 1251.0,1255.0 C1259.0,1235.8 1264.0,1219.7 1269.0,1202.0 C1273.9,1184.7 1276.6,1158.0 1281.0,1150.0 C1282.6,1147.1 1284.3,1146.7 1286.0,1145.0 Z M344.0,247.0 C342.7,248.3 341.8,248.3 340.0,251.0 C328.1,268.9 276.0,407.7 244.0,486.0 C244.7,486.7 245.3,487.3 246.0,488.0 C263.7,487.7 281.3,487.3 299.0,487.0 C304.3,473.3 310.4,454.2 315.0,446.0 C317.2,442.1 319.0,440.7 321.0,438.0 C353.7,438.0 407.2,433.8 419.0,438.0 C422.0,439.1 422.3,439.6 424.0,442.0 C428.5,448.1 434.9,473.4 439.0,481.0 C440.9,484.4 442.3,485.7 444.0,488.0 C461.7,488.0 479.3,488.0 497.0,488.0 C497.7,486.7 498.3,485.3 499.0,484.0 C466.0,406.0 412.4,265.8 400.0,250.0 C398.3,247.8 398.3,247.8 396.0,247.0 C388.6,244.5 361.3,247.0 344.0,247.0 Z M370.0,310.0 C371.7,312.0 373.0,312.6 375.0,316.0 C381.2,326.6 393.7,364.0 403.0,388.0 C402.0,390.0 401.0,392.0 400.0,394.0 C380.3,394.0 360.7,394.0 341.0,394.0 C340.0,393.0 339.0,392.0 338.0,391.0 C346.7,367.3 357.9,332.8 364.0,320.0 C366.4,315.0 368.0,313.3 370.0,310.0 Z M169.0,115.0 C157.8,122.5 147.8,131.5 139.0,141.0 C130.5,150.2 123.3,159.8 117.0,171.0 C110.1,183.2 103.7,199.4 100.0,212.0 C97.1,222.0 96.5,223.2 95.0,240.0 C82.9,376.2 76.4,1953.0 95.0,2119.0 C97.9,2144.7 100.8,2150.7 105.0,2163.0 C108.2,2172.4 112.3,2180.2 116.0,2187.0 C119.0,2192.4 120.9,2195.7 125.0,2201.0 C131.2,2209.1 141.6,2221.5 151.0,2230.0 C160.0,2238.1 169.5,2245.1 180.0,2251.0 C190.8,2257.1 203.1,2262.3 215.0,2266.0 C226.5,2269.6 229.8,2271.0 250.0,2273.0 C373.4,2285.2 1470.3,2281.5 1577.0,2273.0 C1591.7,2271.8 1594.0,2270.9 1602.0,2269.0 C1609.6,2267.2 1615.9,2265.4 1624.0,2262.0 C1634.9,2257.4 1649.7,2249.9 1661.0,2242.0 C1672.0,2234.2 1682.4,2224.6 1691.0,2215.0 C1698.9,2206.2 1705.3,2197.3 1711.0,2187.0 C1717.1,2176.1 1722.5,2162.9 1726.0,2151.0 C1729.3,2139.9 1730.2,2137.6 1732.0,2118.0 C1745.2,1971.6 1741.0,353.4 1732.0,239.0 C1731.1,227.4 1730.6,226.8 1729.0,220.0 C1727.1,211.9 1724.2,202.3 1721.0,194.0 C1717.9,186.0 1713.9,178.0 1710.0,171.0 C1706.5,164.8 1703.7,160.1 1699.0,154.0 C1692.6,145.8 1682.9,134.8 1674.0,127.0 C1665.5,119.6 1657.1,113.6 1647.0,108.0 C1635.7,101.7 1620.6,95.5 1609.0,92.0 C1599.7,89.2 1598.3,88.5 1583.0,87.0 C1474.0,76.6 372.9,73.4 246.0,87.0 C224.6,89.3 221.3,90.7 209.0,95.0 C195.6,99.7 180.9,107.0 169.0,115.0 Z M199.0,170.0 C207.0,164.2 217.8,157.7 228.0,154.0 C238.1,150.4 241.4,149.7 260.0,148.0 C377.8,137.1 1459.4,139.8 1567.0,148.0 C1582.3,149.2 1584.6,149.5 1593.0,152.0 C1601.6,154.5 1610.9,158.9 1618.0,163.0 C1623.8,166.4 1628.0,169.5 1633.0,174.0 C1639.0,179.4 1645.8,186.7 1651.0,194.0 C1656.2,201.4 1660.7,209.4 1664.0,218.0 C1667.5,227.0 1668.9,229.6 1671.0,247.0 C1687.4,384.6 1681.7,1985.9 1671.0,2110.0 C1669.8,2123.9 1669.3,2125.3 1667.0,2133.0 C1664.5,2141.3 1660.0,2151.0 1656.0,2158.0 C1652.9,2163.5 1650.3,2167.1 1646.0,2172.0 C1640.2,2178.6 1630.9,2187.5 1623.0,2193.0 C1616.1,2197.8 1609.7,2201.1 1602.0,2204.0 C1593.5,2207.2 1590.5,2209.0 1574.0,2211.0 C1462.3,2224.7 350.3,2220.5 254.0,2211.0 C242.0,2209.8 240.6,2209.1 234.0,2207.0 C227.0,2204.8 219.7,2201.7 213.0,2198.0 C206.0,2194.1 199.0,2189.2 193.0,2184.0 C187.4,2179.1 182.7,2174.5 178.0,2168.0 C172.2,2159.9 165.7,2148.5 162.0,2138.0 C158.4,2127.5 157.8,2124.6 156.0,2105.0 C142.9,1959.6 143.5,380.8 156.0,250.0 C157.5,234.4 158.6,231.9 161.0,224.0 C163.1,217.1 165.6,211.2 169.0,205.0 C172.7,198.2 177.8,191.0 183.0,185.0 C187.9,179.4 192.5,174.7 199.0,170.0 Z"/>
</svg>
